<svg width="268" height="264" viewBox="0 0 268 264" fill="none" xmlns="http://www.w3.org/2000/svg">
<mask id="path-1-inside-1_50_4" fill="white">
<path d="M52.7607 133.931C55.9107 180.591 95.0607 213.791 139.271 211.901C186.401 210.311 221.931 169.471 219.161 123.551C216.311 76.4011 176.511 42.1711 131.371 44.7311C84.8507 47.3611 49.6007 87.1111 52.7607 133.931Z"/>
<path d="M57.4307 205.011C57.5707 190.171 45.5107 176.031 28.8607 176.071C13.5107 175.781 0.0906705 188.331 0.000670503 204.701C-0.109329 221.121 13.3307 233.801 28.9807 233.691C44.6507 233.581 57.2807 220.741 57.4307 205.011Z"/>
<path d="M154.291 257.261C154.471 259.871 152.501 262.231 149.601 262.521C145.251 262.961 140.871 263.211 136.531 263.531C131.981 263.181 127.461 262.981 122.981 262.441C118.941 261.951 117.211 257.521 119.671 254.381C120.671 253.111 122.001 252.501 123.611 252.561C126.071 252.661 128.551 252.691 130.991 252.961C134.821 253.391 138.631 253.371 142.461 252.941C144.631 252.701 146.831 252.601 149.021 252.601C151.971 252.611 154.101 254.561 154.291 257.261Z"/>
<path d="M252.211 194.111C251.881 194.711 251.551 195.311 251.141 195.851C250.171 197.141 248.841 197.741 247.671 197.741C244.251 197.781 242.051 195.511 242.291 192.501C242.361 191.581 242.681 190.621 243.111 189.801C246.461 183.371 249.431 176.781 251.641 169.871C251.851 169.231 252.131 168.591 252.481 168.011C253.801 165.861 256.321 164.991 258.511 165.891C260.781 166.821 262.081 169.071 261.661 171.481C261.521 172.281 261.291 173.081 261.021 173.851C258.611 180.831 255.741 187.621 252.211 194.111Z"/>
<path d="M178.101 245.991C184.491 243.601 190.671 240.741 196.621 237.371C197.781 236.721 199.101 236.371 199.761 236.101C202.591 236.151 204.071 237.221 204.921 239.131C205.791 241.081 205.411 242.911 203.981 244.431C203.341 245.111 202.491 245.631 201.671 246.101C195.281 249.801 188.611 252.911 181.671 255.421C180.661 255.791 179.581 256.101 178.511 256.161C176.231 256.291 174.241 254.771 173.581 252.611C172.991 250.681 173.751 248.391 175.521 247.191C176.287 246.664 177.202 246.324 178.088 245.996L178.101 245.991Z"/>
<path d="M228.141 36.9311C232.701 41.2711 236.831 46.0111 240.651 51.0211C241.571 52.2211 242.541 53.4111 242.401 54.6311C242.381 57.2111 241.361 58.7311 239.481 59.6411C237.731 60.4911 235.981 60.3311 234.481 59.1111C233.541 58.3411 232.821 57.3111 232.011 56.3911C228.671 52.6011 225.311 48.8211 221.991 45.0111C220.561 43.3611 219.121 41.7211 217.831 39.9711C216.411 38.0511 216.531 35.8711 217.911 34.3411C219.321 32.7811 221.481 32.4211 223.501 33.6311C225.121 34.6011 226.781 35.6311 228.141 36.9311Z"/>
<path d="M259.041 147.081C258.071 144.581 256.951 142.091 257.431 139.181C257.851 136.631 257.791 134.011 257.931 131.421C257.771 128.551 257.531 125.681 257.471 122.821C257.451 121.631 257.581 120.341 258.031 119.261C258.841 117.321 260.551 116.401 262.601 116.361C264.611 116.321 266.551 117.821 267.171 119.861C267.481 120.891 267.681 121.991 267.691 123.071C267.751 128.801 267.671 134.541 267.751 140.271C267.79 143.164 266.3 145.403 264.837 147.602L264.751 147.731C263.351 149.841 259.961 149.461 259.041 147.081Z"/>
<path d="M47.3407 48.6011C45.6907 49.6511 43.9907 49.6111 42.3207 48.6211C40.6507 47.6311 39.9007 46.1011 39.8607 43.5711C40.2307 42.8611 40.6607 41.5211 41.5207 40.5511C43.3207 38.5111 45.2707 36.5811 47.3007 34.7711C50.3507 32.0511 53.5307 29.4711 56.6507 26.8311C57.7307 25.9211 58.9407 25.3911 60.3807 25.4111C62.4907 25.4411 63.9807 26.4111 64.9107 28.3211C65.7807 30.1211 65.4706 31.7911 64.3506 33.3211C63.8706 33.9611 63.2307 34.5111 62.5907 35.0111C57.8407 38.7011 53.4207 42.7411 49.2307 47.0511C48.6607 47.6311 48.0207 48.1711 47.3407 48.6011Z"/>
<path d="M232.361 206.851C233.941 205.771 235.661 205.681 237.391 206.681C239.031 207.641 239.951 209.151 239.971 211.781C239.741 212.281 239.441 213.531 238.721 214.451C234.411 219.971 229.621 225.051 224.361 229.681C222.691 231.141 220.791 231.651 218.671 230.541C215.951 229.121 215.041 225.691 216.801 223.181C217.341 222.401 218.111 221.801 218.771 221.101C222.521 217.121 226.281 213.131 230.041 209.151C230.791 208.351 231.481 207.451 232.361 206.851Z"/>
<path d="M88.8506 243.491C89.5906 243.821 90.3507 244.181 90.9907 244.671C92.2607 245.631 92.9207 246.941 92.8807 248.411C92.8807 251.521 90.5607 253.751 87.5907 253.491C86.5307 253.401 85.4706 253.011 84.4807 252.591C78.9507 250.221 73.6307 247.451 68.5007 244.301C67.6907 243.801 66.8707 243.271 66.2207 242.591C64.7007 241.011 64.4607 238.751 65.4807 236.911C66.6106 234.871 68.7607 233.841 71.0107 234.421C71.9107 234.651 72.7906 235.091 73.6006 235.581C78.5107 238.561 83.6006 241.181 88.8506 243.491Z"/>
<path d="M253.961 72.3211C256.861 78.0611 259.321 83.9911 261.291 90.1111C261.541 90.8911 261.701 91.6911 261.821 92.1911C261.841 94.7311 260.311 96.7311 258.121 97.3511C256.061 97.9311 253.901 97.1911 252.701 95.4511C252.401 95.0011 252.141 94.5011 251.971 93.9911C249.941 87.8911 247.491 81.9611 244.651 76.1911C244.411 75.7111 244.221 75.1811 244.131 74.6511C243.741 72.4211 244.921 70.1811 246.941 69.2411C248.971 68.3011 251.451 68.8411 252.891 70.5811C253.321 71.1011 253.651 71.7111 253.961 72.3211Z"/>
<path d="M143.585 9.88452C142.933 9.80669 142.272 9.7278 141.621 9.61111C137.641 8.88111 137.271 8.57109 135.531 4.4111C135.731 4.0011 135.991 3.5211 136.221 3.0411C137.211 0.9911 138.851 -0.0388782 141.121 0.00112184C144.251 0.0611218 147.401 -0.00890014 150.511 0.2911C154.031 0.6311 157.521 1.3011 161.021 1.8511C161.691 1.9511 162.361 2.14109 162.981 2.40109C165.361 3.39109 166.461 5.45112 166.021 8.00112C165.621 10.3611 163.581 12.0611 161.081 12.0511C160.401 12.0411 159.741 11.8211 159.061 11.7411C153.921 11.1211 148.781 10.5111 143.641 9.89114L143.585 9.88452Z"/>
<path d="M26.2407 60.3911C27.7707 58.9211 29.6207 58.6811 31.5807 59.4011C33.4207 60.0811 34.5606 61.8211 34.6006 64.5111C34.4406 64.9611 34.2107 66.0411 33.7207 66.9811C31.1907 71.8411 28.6007 76.6611 26.0207 81.4911C25.7607 81.9711 25.4807 82.4411 25.1307 82.8611C23.5907 84.7011 21.2807 85.2111 19.2107 84.2011C17.0907 83.1711 15.9607 81.0911 16.4107 78.7911C16.5907 77.8711 16.9607 76.9511 17.4007 76.1111C19.7507 71.6211 22.1307 67.1511 24.5507 62.7011C25.0107 61.8711 25.5607 61.0411 26.2407 60.3911Z"/>
<path d="M105.001 13.9311C100.471 15.4411 95.9307 16.9511 91.3907 18.4511C90.3607 18.7911 89.3107 19.0611 88.8207 19.2111C85.9907 19.1811 84.3407 18.0011 83.5707 15.8611C82.8607 13.9011 83.4907 11.6511 85.2007 10.3611C85.8507 9.87111 86.6007 9.47108 87.3607 9.21108C92.5307 7.45108 97.7107 5.7111 102.911 4.0411C103.791 3.7511 104.811 3.62113 105.711 3.76113C107.951 4.12113 109.651 6.06112 109.881 8.25112C110.091 10.2311 108.901 12.2811 106.931 13.2311C106.321 13.5311 105.651 13.7111 105.001 13.9311Z"/>
<path d="M10.0107 165.701C9.61068 165.001 9.30068 164.201 9.14069 163.411C8.06069 158.061 7.0207 152.701 5.9707 147.351C6.0407 145.761 6.14069 144.281 7.15069 143.011C8.34069 141.511 9.89067 140.691 11.8107 141.011C14.0407 141.381 15.5107 142.781 16.0507 144.961C16.3807 146.281 16.3607 147.681 16.6107 149.021C17.3907 153.181 18.2007 157.341 19.0807 161.481C19.3507 162.731 19.4207 163.891 18.9107 165.081C18.1407 166.871 16.8107 167.911 14.8607 168.091C12.7707 168.281 11.0807 167.541 10.0107 165.701Z"/>
<path d="M188.051 10.0911C192.941 12.5511 197.861 14.9411 202.681 17.5211C204.881 18.7011 205.541 20.1211 205.511 22.1611C205.481 25.6111 202.191 27.9811 198.961 26.8411C198.071 26.5211 197.251 25.9711 196.401 25.5411C192.611 23.6311 188.821 21.7211 185.031 19.8211C184.301 19.4511 183.501 19.1811 182.821 18.7411C180.651 17.3411 179.891 14.5311 180.991 12.2311C182.001 10.1211 184.481 9.05113 186.881 9.70113C187.281 9.81113 187.691 9.91109 188.051 10.0911Z"/>
<path d="M16.0707 118.951C15.8907 120.161 15.7707 121.411 15.4107 122.571C14.7607 124.691 12.5007 126.071 10.3107 125.871C7.98067 125.661 6.03069 123.741 5.77069 121.321C5.68069 120.511 5.70067 119.671 5.81067 118.871C6.34067 114.961 6.90066 111.041 7.49066 107.131C7.59066 106.461 7.79065 105.791 8.04065 105.161C9.02065 102.621 11.2707 101.461 13.9607 102.061C16.2307 102.561 17.8507 104.761 17.7507 107.221C17.7407 107.631 17.6307 108.031 17.5707 108.431C17.0707 111.931 16.5807 115.441 16.0707 118.951Z"/>
</mask>
<path d="M52.7607 133.931C55.9107 180.591 95.0607 213.791 139.271 211.901C186.401 210.311 221.931 169.471 219.161 123.551C216.311 76.4011 176.511 42.1711 131.371 44.7311C84.8507 47.3611 49.6007 87.1111 52.7607 133.931Z" stroke="black" stroke-width="6" mask="url(#path-1-inside-1_50_4)"/>
<path d="M57.4307 205.011C57.5707 190.171 45.5107 176.031 28.8607 176.071C13.5107 175.781 0.0906705 188.331 0.000670503 204.701C-0.109329 221.121 13.3307 233.801 28.9807 233.691C44.6507 233.581 57.2807 220.741 57.4307 205.011Z" stroke="black" stroke-width="6" mask="url(#path-1-inside-1_50_4)"/>
<path d="M154.291 257.261C154.471 259.871 152.501 262.231 149.601 262.521C145.251 262.961 140.871 263.211 136.531 263.531C131.981 263.181 127.461 262.981 122.981 262.441C118.941 261.951 117.211 257.521 119.671 254.381C120.671 253.111 122.001 252.501 123.611 252.561C126.071 252.661 128.551 252.691 130.991 252.961C134.821 253.391 138.631 253.371 142.461 252.941C144.631 252.701 146.831 252.601 149.021 252.601C151.971 252.611 154.101 254.561 154.291 257.261Z" stroke="black" stroke-width="6" mask="url(#path-1-inside-1_50_4)"/>
<path d="M252.211 194.111C251.881 194.711 251.551 195.311 251.141 195.851C250.171 197.141 248.841 197.741 247.671 197.741C244.251 197.781 242.051 195.511 242.291 192.501C242.361 191.581 242.681 190.621 243.111 189.801C246.461 183.371 249.431 176.781 251.641 169.871C251.851 169.231 252.131 168.591 252.481 168.011C253.801 165.861 256.321 164.991 258.511 165.891C260.781 166.821 262.081 169.071 261.661 171.481C261.521 172.281 261.291 173.081 261.021 173.851C258.611 180.831 255.741 187.621 252.211 194.111Z" stroke="black" stroke-width="6" mask="url(#path-1-inside-1_50_4)"/>
<path d="M178.101 245.991C184.491 243.601 190.671 240.741 196.621 237.371C197.781 236.721 199.101 236.371 199.761 236.101C202.591 236.151 204.071 237.221 204.921 239.131C205.791 241.081 205.411 242.911 203.981 244.431C203.341 245.111 202.491 245.631 201.671 246.101C195.281 249.801 188.611 252.911 181.671 255.421C180.661 255.791 179.581 256.101 178.511 256.161C176.231 256.291 174.241 254.771 173.581 252.611C172.991 250.681 173.751 248.391 175.521 247.191C176.287 246.664 177.202 246.324 178.088 245.996L178.101 245.991Z" stroke="black" stroke-width="6" mask="url(#path-1-inside-1_50_4)"/>
<path d="M228.141 36.9311C232.701 41.2711 236.831 46.0111 240.651 51.0211C241.571 52.2211 242.541 53.4111 242.401 54.6311C242.381 57.2111 241.361 58.7311 239.481 59.6411C237.731 60.4911 235.981 60.3311 234.481 59.1111C233.541 58.3411 232.821 57.3111 232.011 56.3911C228.671 52.6011 225.311 48.8211 221.991 45.0111C220.561 43.3611 219.121 41.7211 217.831 39.9711C216.411 38.0511 216.531 35.8711 217.911 34.3411C219.321 32.7811 221.481 32.4211 223.501 33.6311C225.121 34.6011 226.781 35.6311 228.141 36.9311Z" stroke="black" stroke-width="6" mask="url(#path-1-inside-1_50_4)"/>
<path d="M259.041 147.081C258.071 144.581 256.951 142.091 257.431 139.181C257.851 136.631 257.791 134.011 257.931 131.421C257.771 128.551 257.531 125.681 257.471 122.821C257.451 121.631 257.581 120.341 258.031 119.261C258.841 117.321 260.551 116.401 262.601 116.361C264.611 116.321 266.551 117.821 267.171 119.861C267.481 120.891 267.681 121.991 267.691 123.071C267.751 128.801 267.671 134.541 267.751 140.271C267.79 143.164 266.3 145.403 264.837 147.602L264.751 147.731C263.351 149.841 259.961 149.461 259.041 147.081Z" stroke="black" stroke-width="6" mask="url(#path-1-inside-1_50_4)"/>
<path d="M47.3407 48.6011C45.6907 49.6511 43.9907 49.6111 42.3207 48.6211C40.6507 47.6311 39.9007 46.1011 39.8607 43.5711C40.2307 42.8611 40.6607 41.5211 41.5207 40.5511C43.3207 38.5111 45.2707 36.5811 47.3007 34.7711C50.3507 32.0511 53.5307 29.4711 56.6507 26.8311C57.7307 25.9211 58.9407 25.3911 60.3807 25.4111C62.4907 25.4411 63.9807 26.4111 64.9107 28.3211C65.7807 30.1211 65.4706 31.7911 64.3506 33.3211C63.8706 33.9611 63.2307 34.5111 62.5907 35.0111C57.8407 38.7011 53.4207 42.7411 49.2307 47.0511C48.6607 47.6311 48.0207 48.1711 47.3407 48.6011Z" stroke="black" stroke-width="6" mask="url(#path-1-inside-1_50_4)"/>
<path d="M232.361 206.851C233.941 205.771 235.661 205.681 237.391 206.681C239.031 207.641 239.951 209.151 239.971 211.781C239.741 212.281 239.441 213.531 238.721 214.451C234.411 219.971 229.621 225.051 224.361 229.681C222.691 231.141 220.791 231.651 218.671 230.541C215.951 229.121 215.041 225.691 216.801 223.181C217.341 222.401 218.111 221.801 218.771 221.101C222.521 217.121 226.281 213.131 230.041 209.151C230.791 208.351 231.481 207.451 232.361 206.851Z" stroke="black" stroke-width="6" mask="url(#path-1-inside-1_50_4)"/>
<path d="M88.8506 243.491C89.5906 243.821 90.3507 244.181 90.9907 244.671C92.2607 245.631 92.9207 246.941 92.8807 248.411C92.8807 251.521 90.5607 253.751 87.5907 253.491C86.5307 253.401 85.4706 253.011 84.4807 252.591C78.9507 250.221 73.6307 247.451 68.5007 244.301C67.6907 243.801 66.8707 243.271 66.2207 242.591C64.7007 241.011 64.4607 238.751 65.4807 236.911C66.6106 234.871 68.7607 233.841 71.0107 234.421C71.9107 234.651 72.7906 235.091 73.6006 235.581C78.5107 238.561 83.6006 241.181 88.8506 243.491Z" stroke="black" stroke-width="6" mask="url(#path-1-inside-1_50_4)"/>
<path d="M253.961 72.3211C256.861 78.0611 259.321 83.9911 261.291 90.1111C261.541 90.8911 261.701 91.6911 261.821 92.1911C261.841 94.7311 260.311 96.7311 258.121 97.3511C256.061 97.9311 253.901 97.1911 252.701 95.4511C252.401 95.0011 252.141 94.5011 251.971 93.9911C249.941 87.8911 247.491 81.9611 244.651 76.1911C244.411 75.7111 244.221 75.1811 244.131 74.6511C243.741 72.4211 244.921 70.1811 246.941 69.2411C248.971 68.3011 251.451 68.8411 252.891 70.5811C253.321 71.1011 253.651 71.7111 253.961 72.3211Z" stroke="black" stroke-width="6" mask="url(#path-1-inside-1_50_4)"/>
<path d="M143.585 9.88452C142.933 9.80669 142.272 9.7278 141.621 9.61111C137.641 8.88111 137.271 8.57109 135.531 4.4111C135.731 4.0011 135.991 3.5211 136.221 3.0411C137.211 0.9911 138.851 -0.0388782 141.121 0.00112184C144.251 0.0611218 147.401 -0.00890014 150.511 0.2911C154.031 0.6311 157.521 1.3011 161.021 1.8511C161.691 1.9511 162.361 2.14109 162.981 2.40109C165.361 3.39109 166.461 5.45112 166.021 8.00112C165.621 10.3611 163.581 12.0611 161.081 12.0511C160.401 12.0411 159.741 11.8211 159.061 11.7411C153.921 11.1211 148.781 10.5111 143.641 9.89114L143.585 9.88452Z" stroke="black" stroke-width="6" mask="url(#path-1-inside-1_50_4)"/>
<path d="M26.2407 60.3911C27.7707 58.9211 29.6207 58.6811 31.5807 59.4011C33.4207 60.0811 34.5606 61.8211 34.6006 64.5111C34.4406 64.9611 34.2107 66.0411 33.7207 66.9811C31.1907 71.8411 28.6007 76.6611 26.0207 81.4911C25.7607 81.9711 25.4807 82.4411 25.1307 82.8611C23.5907 84.7011 21.2807 85.2111 19.2107 84.2011C17.0907 83.1711 15.9607 81.0911 16.4107 78.7911C16.5907 77.8711 16.9607 76.9511 17.4007 76.1111C19.7507 71.6211 22.1307 67.1511 24.5507 62.7011C25.0107 61.8711 25.5607 61.0411 26.2407 60.3911Z" stroke="black" stroke-width="6" mask="url(#path-1-inside-1_50_4)"/>
<path d="M105.001 13.9311C100.471 15.4411 95.9307 16.9511 91.3907 18.4511C90.3607 18.7911 89.3107 19.0611 88.8207 19.2111C85.9907 19.1811 84.3407 18.0011 83.5707 15.8611C82.8607 13.9011 83.4907 11.6511 85.2007 10.3611C85.8507 9.87111 86.6007 9.47108 87.3607 9.21108C92.5307 7.45108 97.7107 5.7111 102.911 4.0411C103.791 3.7511 104.811 3.62113 105.711 3.76113C107.951 4.12113 109.651 6.06112 109.881 8.25112C110.091 10.2311 108.901 12.2811 106.931 13.2311C106.321 13.5311 105.651 13.7111 105.001 13.9311Z" stroke="black" stroke-width="6" mask="url(#path-1-inside-1_50_4)"/>
<path d="M10.0107 165.701C9.61068 165.001 9.30068 164.201 9.14069 163.411C8.06069 158.061 7.0207 152.701 5.9707 147.351C6.0407 145.761 6.14069 144.281 7.15069 143.011C8.34069 141.511 9.89067 140.691 11.8107 141.011C14.0407 141.381 15.5107 142.781 16.0507 144.961C16.3807 146.281 16.3607 147.681 16.6107 149.021C17.3907 153.181 18.2007 157.341 19.0807 161.481C19.3507 162.731 19.4207 163.891 18.9107 165.081C18.1407 166.871 16.8107 167.911 14.8607 168.091C12.7707 168.281 11.0807 167.541 10.0107 165.701Z" stroke="black" stroke-width="6" mask="url(#path-1-inside-1_50_4)"/>
<path d="M188.051 10.0911C192.941 12.5511 197.861 14.9411 202.681 17.5211C204.881 18.7011 205.541 20.1211 205.511 22.1611C205.481 25.6111 202.191 27.9811 198.961 26.8411C198.071 26.5211 197.251 25.9711 196.401 25.5411C192.611 23.6311 188.821 21.7211 185.031 19.8211C184.301 19.4511 183.501 19.1811 182.821 18.7411C180.651 17.3411 179.891 14.5311 180.991 12.2311C182.001 10.1211 184.481 9.05113 186.881 9.70113C187.281 9.81113 187.691 9.91109 188.051 10.0911Z" stroke="black" stroke-width="6" mask="url(#path-1-inside-1_50_4)"/>
<path d="M16.0707 118.951C15.8907 120.161 15.7707 121.411 15.4107 122.571C14.7607 124.691 12.5007 126.071 10.3107 125.871C7.98067 125.661 6.03069 123.741 5.77069 121.321C5.68069 120.511 5.70067 119.671 5.81067 118.871C6.34067 114.961 6.90066 111.041 7.49066 107.131C7.59066 106.461 7.79065 105.791 8.04065 105.161C9.02065 102.621 11.2707 101.461 13.9607 102.061C16.2307 102.561 17.8507 104.761 17.7507 107.221C17.7407 107.631 17.6307 108.031 17.5707 108.431C17.0707 111.931 16.5807 115.441 16.0707 118.951Z" stroke="black" stroke-width="6" mask="url(#path-1-inside-1_50_4)"/>
</svg>
